<svg width="1440" height="2987" viewBox="0 0 1440 2987" fill="none" xmlns="http://www.w3.org/2000/svg">
<g opacity="0.2">
<g opacity="0.3" filter="url(#filter0_f_1_112)">
<circle cx="1258.5" cy="180.5" r="319.5" fill="#0B3280" fill-opacity="0.42"/>
</g>
<g opacity="0.3" filter="url(#filter1_f_1_112)">
<circle cx="1096.5" cy="752.5" r="193.5" fill="#0B3280" fill-opacity="0.42"/>
</g>
<g opacity="0.3" filter="url(#filter2_f_1_112)">
<circle cx="332.5" cy="803.5" r="319.5" fill="#0B3280" fill-opacity="0.42"/>
</g>
<g opacity="0.3" filter="url(#filter3_f_1_112)">
<circle cx="1117" cy="2879" r="207" fill="#0B3280" fill-opacity="0.42"/>
</g>
<g opacity="0.3" filter="url(#filter4_f_1_112)">
<circle cx="283.5" cy="283.5" r="283.5" transform="matrix(-1 0 0 1 476 2155)" fill="#0B3280" fill-opacity="0.2"/>
</g>
<g opacity="0.3" filter="url(#filter5_f_1_112)">
<circle cx="319.5" cy="319.5" r="319.5" transform="matrix(-1 0 0 1 1450 1577)" fill="#0B3280" fill-opacity="0.2"/>
</g>
<path d="M715.987 1202.25H825.886V1169H826.886V1202.25H936.784V1169H937.784V1202.25H1047.68V1169H1048.68V1202.25H1158.58V1169H1159.58V1202.25H1269.48V1169H1270.48V1202.25H1380.38V1169H1381.38V1202.25H1491.28V1169H1492.28V1202.25H1599.06V1203.25H1492.28V1313.15H1599.06V1314.15H1492.28V1424.05H1599.06V1425.05H1492.28V1534.95H1599.06V1535.95H1492.28V1645.84H1599.06V1646.84H1492.28V1765.18H1599.06V1766.18H1492.28V1876.08H1599.06V1877.08H1492.28V1986.5H1599V1987.5H1492.28V2097.5H1599V2098.5H1492.28V2208.78H1599.06V2209.78H1492.28V2243.03H1491.28V2209.78H1381.38V2243.03H1380.38V2209.78H715.987V2243.03H714.987V2209.78H607V2208.78H714.987V1877.08H607V1876.08H714.987V1766.18H607V1765.18H714.987V1646.84H607V1645.84H714.987V1535.95H607V1534.95H714.987V1425.05H607V1424.05H714.987V1314.15H607V1313.15H714.987V1203.25H607V1202.25H714.987V1169H715.987V1202.25ZM715.987 2208.78H1380.38V2098.5H1340V2097.5H1380.38V1987.5H1361V1986.5H1380.38V1877.08H1270.5V1928H1269.5V1877.08H1159.5V1912H1158.5V1877.08H1048.5V1922H1047.5V1877.08H937.5V1919H936.5V1877.08H826.5V1907H825.5V1877.08H715.987V2208.78ZM1381.38 2208.78H1491.28V2098.5H1381.38V2208.78ZM1381.5 2019H1381.38V2097.5H1491.28V1987.5H1381.5V2019ZM1381.5 1986.5H1491.28V1877.08H1381.5V1986.5ZM715.987 1876.08H825.5V1766.18H715.987V1876.08ZM826.5 1876.08H936.5V1766.18H826.5V1876.08ZM937.5 1876.08H1047.5V1766.18H937.5V1876.08ZM1048.5 1876.08H1158.5V1766.18H1048.5V1876.08ZM1159.5 1876.08H1269.5V1766.18H1159.5V1876.08ZM1270.5 1876.08H1380.38V1766.18H1270.5V1876.08ZM1381.5 1876.08H1491.28V1766.18H1381.5V1876.08ZM715.987 1765.18H825.5V1719H826.5V1765.18H936.5V1719H937.5V1765.18H1047.5V1719H1048.5V1765.18H1158.5V1719H1159.5V1765.18H1269.5V1720H1270.5V1765.18H1380.38V1731.93H1380.5V1719H1381.5V1765.18H1491.28V1646.84H1381.38V1718.67H1380.38V1646.84H1270.48V1717.46H1269.48V1646.84H1159.58V1718.67H1158.58V1646.84H1048.68V1718.67H1047.68V1646.84H937.784V1718.67H936.784V1646.84H826.886V1718.67H825.886V1646.84H715.987V1765.18ZM715.987 1645.84H825.886V1535.95H715.987V1645.84ZM826.886 1645.84H936.784V1535.95H826.886V1645.84ZM937.784 1645.84H1047.68V1535.95H937.784V1645.84ZM1048.68 1645.84H1158.58V1535.95H1048.68V1645.84ZM1159.58 1645.84H1269.48V1535.95H1159.58V1645.84ZM1270.48 1645.84H1380.38V1535.95H1270.48V1645.84ZM1381.38 1645.84H1491.28V1535.95H1381.38V1645.84ZM715.987 1534.95H825.886V1425.05H715.987V1534.95ZM826.886 1534.95H936.784V1425.05H826.886V1534.95ZM937.784 1534.95H1047.68V1425.05H937.784V1534.95ZM1048.68 1534.95H1158.58V1425.05H1048.68V1534.95ZM1159.58 1534.95H1269.48V1425.05H1159.58V1534.95ZM1270.48 1534.95H1380.38V1425.05H1270.48V1534.95ZM1381.38 1534.95H1491.28V1425.05H1381.38V1534.95ZM1381.38 1424.05H1491.28V1314.15H1381.38V1424.05ZM1270.48 1424.05H1380.38V1314.15H1270.48V1424.05ZM1159.58 1424.05H1269.48V1314.15H1159.58V1424.05ZM1048.68 1424.05H1158.58V1314.15H1048.68V1424.05ZM937.784 1424.05H1047.68V1314.15H937.784V1424.05ZM826.886 1424.05H936.784V1314.15H826.886V1424.05ZM715.987 1424.05H825.886V1314.15H715.987V1424.05ZM715.987 1313.15H825.886V1203.25H715.987V1313.15ZM826.886 1313.15H936.784V1203.25H826.886V1313.15ZM937.784 1313.15H1047.68V1203.25H937.784V1313.15ZM1048.68 1313.15H1158.58V1203.25H1048.68V1313.15ZM1159.58 1313.15H1269.48V1203.25H1159.58V1313.15ZM1270.48 1313.15H1380.38V1203.25H1270.48V1313.15ZM1381.38 1313.15H1491.28V1203.25H1381.38V1313.15Z" fill="url(#paint0_radial_1_112)"/>
<path d="M491.987 93.2522H601.886V60.0002H602.886V93.2522H712.784V60.0002H713.784V93.2522H823.683V60.0002H824.683V93.2522H934.581V60.0002H935.581V93.2522H1045.48V60.0012H1046.48V93.2522H1156.38V60.0002H1157.38V93.2522H1267.28V60.0002H1268.28V93.2522H1375.06V94.2522H1268.28V204.151H1375.06V205.151H1268.28V315.05H1375.06V316.05H1268.28V425.948H1375.06V426.948H1268.28V536.845H1375.06V537.845H1268.28V656.183H1375.06V657.183H1268.28V767.08H1375.06V768.08H1268.28V877.978H1375.06V878.978H1268.28V988.879H1375.06V989.879H1268.28V1099.78H1375.06V1100.78H1268.28V1134.03H1267.28V1100.78H1157.38V1134.03H1156.38V1100.78H1046.48V1134.03H1045.48V1100.78H935.581V1134.03H934.581V1100.78H824.683V1134.03H823.683V1100.78H713.784V1134.03H712.784V1100.78H602.886V1134.03H601.886V1100.78H491.987V1134.03H490.987V1100.78H383V1099.78H490.987V989.879H383V988.879H490.987V878.978H383V877.978H490.987V768.08H383V767.08H490.987V657.183H383V656.183H490.987V537.845H383V536.845H490.987V426.948H383V425.948H490.987V316.05H383V315.05H490.987V205.151H383V204.151H490.987V94.2522H383V93.2522H490.987V60.0002H491.987V93.2522ZM491.987 1099.78H601.886V989.879H491.987V1099.78ZM602.886 1099.78H712.784V989.879H602.886V1099.78ZM713.784 1099.78H823.683V989.879H713.784V1099.78ZM824.683 1099.78H934.581V989.879H824.683V1099.78ZM935.581 1099.78H1045.48V989.879H935.581V1099.78ZM1046.48 1099.78H1156.38V989.879H1046.48V1099.78ZM1157.38 1099.78H1267.28V989.879H1157.38V1099.78ZM491.987 988.879H601.886V878.978H491.987V988.879ZM602.886 988.879H712.784V878.978H602.886V988.879ZM713.784 988.879H823.683V878.978H713.784V988.879ZM824.683 988.879H934.581V878.978H824.683V988.879ZM935.581 988.879H1045.48V878.978H935.581V988.879ZM1046.48 988.879H1156.38V878.978H1046.48V988.879ZM1157.38 988.879H1267.28V878.978H1157.38V988.879ZM491.987 877.978H601.886V768.08H491.987V877.978ZM602.886 877.978H712.784V768.08H602.886V877.978ZM713.784 877.978H823.683V768.08H713.784V877.978ZM824.683 877.978H934.581V768.08H824.683V877.978ZM935.581 877.978H1045.48V768.08H935.581V877.978ZM1046.48 877.978H1156.38V768.08H1046.48V877.978ZM1157.38 877.978H1267.28V768.08H1157.38V877.978ZM491.987 767.08H601.886V657.183H491.987V767.08ZM602.886 767.08H712.784V657.183H602.886V767.08ZM713.784 767.08H823.683V657.183H713.784V767.08ZM824.683 767.08H934.581V657.183H824.683V767.08ZM935.581 767.08H1045.48V657.183H935.581V767.08ZM1046.48 767.08H1156.38V657.183H1046.48V767.08ZM1157.38 767.08H1267.28V657.183H1157.38V767.08ZM491.987 656.183H601.886V537.845H491.987V656.183ZM602.886 656.183H712.784V537.845H602.886V656.183ZM713.784 656.183H823.683V537.845H713.784V656.183ZM824.683 656.183H934.581V537.845H824.683V656.183ZM935.581 656.183H1045.48V610.876H1046.48V656.183H1156.38V537.845H1046.48V608.465H1045.48V537.845H935.581V656.183ZM1157.38 656.183H1267.28V537.845H1157.38V656.183ZM491.987 536.845H601.886V426.948H491.987V536.845ZM602.886 536.845H712.784V426.948H602.886V536.845ZM713.784 536.845H823.683V426.948H713.784V536.845ZM824.683 536.845H934.581V426.948H824.683V536.845ZM935.581 536.845H1045.48V426.948H935.581V536.845ZM1046.48 536.845H1156.38V426.948H1046.48V536.845ZM1157.38 536.845H1267.28V426.948H1157.38V536.845ZM491.987 425.948H601.886V316.05H491.987V425.948ZM602.886 425.948H712.784V316.05H602.886V425.948ZM713.784 425.948H823.683V316.05H713.784V425.948ZM824.683 425.948H934.581V316.05H824.683V425.948ZM935.581 425.948H1045.48V316.05H935.581V425.948ZM1046.48 425.948H1156.38V316.05H1046.48V425.948ZM1157.38 425.948H1267.28V316.05H1157.38V425.948ZM1157.38 315.05H1267.28V205.151H1157.38V315.05ZM1046.48 315.05H1156.38V205.151H1046.48V315.05ZM935.581 315.05H1045.48V205.151H935.581V315.05ZM824.683 315.05H934.581V205.151H824.683V315.05ZM713.784 315.05H823.683V205.151H713.784V315.05ZM602.886 315.05H712.784V205.151H602.886V315.05ZM491.987 315.05H601.886V205.151H491.987V315.05ZM491.987 204.151H601.886V94.2522H491.987V204.151ZM602.886 204.151H712.784V94.2522H602.886V204.151ZM713.784 204.151H823.683V94.2522H713.784V204.151ZM824.683 204.151H934.581V94.2522H824.683V204.151ZM935.581 204.151H1045.48V94.2522H935.581V204.151ZM1046.48 204.151H1156.38V94.2522H1046.48V204.151ZM1157.38 204.151H1267.28V94.2522H1157.38V204.151Z" fill="url(#paint1_radial_1_112)" fill-opacity="0.2"/>
<path d="M-384.013 1054.25H-274.114V1021H-273.114V1054.25H-163.216V1021H-162.216V1054.25H-52.3174V1021H-51.3174V1054.25H58.5811V1021H59.5811V1054.25H169.479V1021H170.479V1054.25H280.377V1021H281.377V1054.25H391.275V1021H392.275V1054.25H499.058V1055.25H392.275V1165.15H499.058V1166.15H392.275V1276.05H499.058V1277.05H392.275V1386.95H499.058V1387.95H392.275V1497.84H499.058V1498.84H392.275V1617.18H499.058V1618.18H392.275V1728.08H499.058V1729.08H392.275V1838.98H499.058V1839.98H392.275V2060.78H499.058V2061.78H392.275V2095.03H391.275V2061.78H59.5811V2095.03H58.5811V2061.78H-51.3174V2095.03H-52.3174V2061.78H-162.216V2095.03H-163.216V2061.78H-273.114V2095.03H-274.114V2061.78H-384.013V2095.03H-385.013V2061.78H-493V2060.78H-385.013V1950.5H-493V1949.5H-385.013V1839.98H-493V1838.98H-385.013V1729.08H-493V1728.08H-385.013V1618.18H-493V1617.18H-385.013V1498.84H-493V1497.84H-385.013V1387.95H-493V1386.95H-385.013V1277.05H-493V1276.05H-385.013V1166.15H-493V1165.15H-385.013V1055.25H-493V1054.25H-385.013V1021H-384.013V1054.25ZM-384.013 2060.78H-274.114V1950.5H-384.013V2060.78ZM-273.114 2060.78H-163.216V1950.5H-273.114V2060.78ZM-162.216 2060.78H-52.3174V1950.5H-162.216V2060.78ZM-51.3174 2060.78H58.5811V1950.5H-51.3174V2060.78ZM59.5811 1949.5H75V1950.5H59.5811V2060.78H391.275V1839.98H281.5V1867H280.5V1839.98H170.5V1867H169.5V1839.98H59.5811V1949.5ZM-384.013 1949.5H-274.114V1839.98H-384.013V1949.5ZM-273.114 1949.5H-163.216V1839.98H-273.114V1949.5ZM-162.216 1949.5H-52.3174V1839.98H-162.216V1949.5ZM-51.3174 1949.5H58.5811V1839.98H-51.3174V1949.5ZM-384.013 1838.98H-274.114V1729.08H-384.013V1838.98ZM-273.114 1838.98H-163.216V1729.08H-273.114V1838.98ZM-162.216 1838.98H-52.3174V1729.08H-162.216V1838.98ZM-51.3174 1838.98H58.5811V1729.08H-51.3174V1838.98ZM59.5811 1838.98H169.5V1729.08H59.5811V1838.98ZM170.5 1838.98H280.5V1729.08H170.5V1838.98ZM281.5 1838.98H391.275V1729.08H281.5V1838.98ZM-384.013 1728.08H-274.114V1618.18H-384.013V1728.08ZM-273.114 1728.08H-163.216V1618.18H-273.114V1728.08ZM-162.216 1728.08H-52.3174V1618.18H-162.216V1728.08ZM-51.3174 1728.08H58.5811V1618.18H-51.3174V1728.08ZM59.5811 1728.08H169.5V1618.18H59.5811V1728.08ZM170.5 1728.08H280.5V1618.18H170.5V1728.08ZM281.5 1728.08H391.275V1618.18H281.5V1728.08ZM-384.013 1617.18H-274.114V1498.84H-384.013V1617.18ZM-273.114 1617.18H-163.216V1498.84H-273.114V1617.18ZM-162.216 1617.18H-52.3174V1498.84H-162.216V1617.18ZM-51.3174 1617.18H58.5811V1498.84H-51.3174V1617.18ZM59.5811 1617.18H169.5V1571H170.5V1617.18H280.5V1571H281.5V1617.18H391.275V1498.84H281.377V1570.67H280.377V1498.84H170.479V1569.47H169.479V1498.84H59.5811V1617.18ZM-384.013 1497.84H-274.114V1387.95H-384.013V1497.84ZM-273.114 1497.84H-163.216V1387.95H-273.114V1497.84ZM-162.216 1497.84H-52.3174V1387.95H-162.216V1497.84ZM-51.3174 1497.84H58.5811V1387.95H-51.3174V1497.84ZM59.5811 1497.84H169.479V1387.95H59.5811V1497.84ZM170.479 1497.84H280.377V1387.95H170.479V1497.84ZM281.377 1497.84H391.275V1387.95H281.377V1497.84ZM-384.013 1386.95H-274.114V1277.05H-384.013V1386.95ZM-273.114 1386.95H-163.216V1277.05H-273.114V1386.95ZM-162.216 1386.95H-52.3174V1277.05H-162.216V1386.95ZM-51.3174 1386.95H58.5811V1277.05H-51.3174V1386.95ZM59.5811 1386.95H169.479V1277.05H59.5811V1386.95ZM170.479 1386.95H280.377V1277.05H170.479V1386.95ZM281.377 1386.95H391.275V1277.05H281.377V1386.95ZM281.377 1276.05H391.275V1166.15H281.377V1276.05ZM170.479 1276.05H280.377V1166.15H170.479V1276.05ZM59.5811 1276.05H169.479V1166.15H59.5811V1276.05ZM-51.3174 1276.05H58.5811V1166.15H-51.3174V1276.05ZM-162.216 1276.05H-52.3174V1166.15H-162.216V1276.05ZM-273.114 1276.05H-163.216V1166.15H-273.114V1276.05ZM-384.013 1276.05H-274.114V1166.15H-384.013V1276.05ZM-384.013 1165.15H-274.114V1055.25H-384.013V1165.15ZM-273.114 1165.15H-163.216V1055.25H-273.114V1165.15ZM-162.216 1165.15H-52.3174V1055.25H-162.216V1165.15ZM-51.3174 1165.15H58.5811V1055.25H-51.3174V1165.15ZM59.5811 1165.15H169.479V1055.25H59.5811V1165.15ZM170.479 1165.15H280.377V1055.25H170.479V1165.15ZM281.377 1165.15H391.275V1055.25H281.377V1165.15Z" fill="url(#paint2_radial_1_112)"/>
<path d="M-639.013 2961.25H-529.114V2928H-528.114V2961.25H-418.216V2928H-417.216V2961.25H-307.317V2928H-306.317V2961.25H-196.419V2928H-195.419V2961.25H-85.5215V2928H-84.5215V2961.25H25.377V2928H26.377V2961.25H244.058V2962.25H26.377V3072.15H244.058V3073.15H26.377V3183.05H244.058V3184.05H26.377V3293.5H109V3294.5H26.377V3404.84H136.5V3377H137.5V3404.84H244.058V3405.84H137.5V3478H137.275V3524.18H244.058V3525.18H137.275V3635.08H244.058V3636.08H137.275V3745.5H244V3746.5H137.275V3856.88H244.058V3857.88H137.275V3967.78H244.058V3968.78H137.275V4002.03H136.275V3968.78H26.377V4002.03H25.377V3968.78H-639.013V4002.03H-640.013V3968.78H-748V3967.78H-640.013V3857.88H-748V3856.88H-640.013V3636.08H-748V3635.08H-640.013V3525.18H-748V3524.18H-640.013V3405.84H-748V3404.84H-640.013V3294.5H-748V3293.5H-640.013V3184.05H-748V3183.05H-640.013V3073.15H-748V3072.15H-640.013V2962.25H-748V2961.25H-640.013V2928H-639.013V2961.25ZM-639.013 3967.78H25.377V3857.88H-639.013V3967.78ZM26.377 3967.78H136.275V3857.88H26.377V3967.78ZM-639.013 3856.88H25.377V3746.5H6V3745.5H25.377V3636.08H-84.5V3687H-85.5V3636.08H-195.5V3671H-196.5V3636.08H-306.5V3681H-307.5V3636.08H-417.5V3678H-418.5V3636.08H-528.5V3666H-529.5V3636.08H-639.013V3856.88ZM26.5 3778H26.377V3856.88H136.275V3746.5H26.5V3778ZM26.5 3745.5H136.275V3636.08H26.5V3745.5ZM-639.013 3635.08H-529.5V3525.18H-639.013V3635.08ZM-528.5 3635.08H-418.5V3525.18H-528.5V3635.08ZM-417.5 3635.08H-307.5V3525.18H-417.5V3635.08ZM-306.5 3635.08H-196.5V3525.18H-306.5V3635.08ZM-195.5 3635.08H-85.5V3525.18H-195.5V3635.08ZM-84.5 3635.08H25.377V3525.18H-84.5V3635.08ZM26.5 3635.08H136.275V3525.18H26.5V3635.08ZM-639.013 3524.18H-529.5V3478H-528.5V3524.18H-418.5V3478H-417.5V3524.18H-307.5V3478H-306.5V3524.18H-196.5V3478H-195.5V3524.18H-85.5V3479H-84.5V3524.18H25.377V3490.93H25.5V3478H26.5V3524.18H136.275V3477.67H136.5V3405.84H26.377V3477.67H25.377V3405.84H-84.5215V3476.46H-85.5215V3405.84H-195.419V3477.67H-196.419V3405.84H-306.317V3477.67H-307.317V3405.84H-417.216V3477.67H-418.216V3405.84H-528.114V3477.67H-529.114V3405.84H-639.013V3524.18ZM-639.013 3404.84H-529.114V3294.5H-639.013V3404.84ZM-528.114 3404.84H-418.216V3294.5H-528.114V3404.84ZM-417.216 3404.84H-307.317V3294.5H-417.216V3404.84ZM-306.317 3404.84H-196.419V3294.5H-306.317V3404.84ZM-195.419 3404.84H-85.5215V3294.5H-195.419V3404.84ZM-84.5215 3404.84H25.377V3294.5H-84.5215V3404.84ZM-639.013 3293.5H-529.114V3184.05H-639.013V3293.5ZM-528.114 3293.5H-418.216V3184.05H-528.114V3293.5ZM-417.216 3293.5H-307.317V3184.05H-417.216V3293.5ZM-306.317 3293.5H-196.419V3184.05H-306.317V3293.5ZM-195.419 3293.5H-85.5215V3184.05H-195.419V3293.5ZM-84.5215 3293.5H25.377V3184.05H-84.5215V3293.5ZM-84.5215 3183.05H25.377V3073.15H-84.5215V3183.05ZM-195.419 3183.05H-85.5215V3073.15H-195.419V3183.05ZM-306.317 3183.05H-196.419V3073.15H-306.317V3183.05ZM-417.216 3183.05H-307.317V3073.15H-417.216V3183.05ZM-528.114 3183.05H-418.216V3073.15H-528.114V3183.05ZM-639.013 3183.05H-529.114V3073.15H-639.013V3183.05ZM-639.013 3072.15H-529.114V2962.25H-639.013V3072.15ZM-528.114 3072.15H-418.216V2962.25H-528.114V3072.15ZM-417.216 3072.15H-307.317V2962.25H-417.216V3072.15ZM-306.317 3072.15H-196.419V2962.25H-306.317V3072.15ZM-195.419 3072.15H-85.5215V2962.25H-195.419V3072.15ZM-84.5215 3072.15H25.377V2962.25H-84.5215V3072.15Z" fill="url(#paint3_radial_1_112)"/>
<path d="M-413.422 3467L-335.712 3544.71L-359.224 3568.23L-358.517 3568.93L-335.005 3545.42L-257.295 3623.13L-280.807 3646.64L-280.1 3647.35L-256.588 3623.84L-22.0443 3858.38L-45.5563 3881.89L-44.8492 3882.6L-21.3372 3859.09L211.003 4091.43L211.71 4090.72L-20.6301 3858.38L57.0799 3780.67L289.42 4013.01L290.127 4012.31L57.787 3779.96L135.497 3702.26L367.837 3934.6L368.545 3933.89L136.204 3701.55L213.598 3624.15L350.438 3760.99L351.145 3760.29L214.305 3623.45L342.973 3494.78L342.266 3494.07L213.598 3622.74L-20.9456 3388.2L56.8361 3310.42L134.417 3388L127.699 3394.71L128.406 3395.42L135.124 3388.7L212.906 3466.48L206.188 3473.2L206.895 3473.91L213.613 3467.19L245.786 3499.37L246.493 3498.66L214.32 3466.48L298.241 3382.56L376.023 3460.35L344.074 3492.29L344.781 3493L376.73 3461.05L454.425 3538.75L430.912 3562.26L431.619 3562.97L442.294 3552.29L442.381 3552.38L455.219 3539.54L532.842 3617.16L499.952 3650.05L500.66 3650.76L533.549 3617.87L609.055 3693.38L609.763 3692.67L534.256 3617.16L611.965 3539.45L687.472 3614.96L688.179 3614.25L612.672 3538.75L690.044 3461.38L765.51 3536.84L766.217 3536.13L690.751 3460.67L768.801 3382.62L844.307 3458.13L845.014 3457.42L769.508 3381.91L847.216 3304.2L922.723 3379.71L923.43 3379L847.924 3303.5L871.435 3279.99L870.728 3279.28L847.216 3302.79L769.507 3225.08L793.019 3201.57L792.312 3200.86L768.799 3224.37L299.005 2754.58L322.518 2731.07L321.811 2730.36L298.298 2753.87L221.939 2677.51L221.232 2678.22L297.591 2754.58L219.882 2832.29L143.524 2755.93L142.817 2756.64L219.175 2832.99L63.0468 2989.12L-13.3118 2912.76L-14.0189 2913.47L62.3397 2989.83L-15.3696 3067.54L-91.7281 2991.18L-92.4352 2991.89L-16.0767 3068.25L-99.998 3152.17L-176.357 3075.81L-177.064 3076.52L-100.705 3152.87L-178.487 3230.66L-254.845 3154.3L-255.552 3155L-179.194 3231.36L-256.588 3308.76L-332.946 3232.4L-333.653 3233.1L-257.295 3309.46L-335.005 3387.17L-411.363 3310.81L-412.07 3311.52L-335.712 3387.88L-413.422 3465.59L-489.78 3389.23L-490.487 3389.94L-414.129 3466.3L-437.641 3489.81L-436.934 3490.52L-413.422 3467ZM298.298 2755.29L768.092 3225.08L690.384 3302.79L220.589 2832.99L298.298 2755.29ZM768.799 3225.79L846.509 3303.5L768.801 3381.21L691.091 3303.5L768.799 3225.79ZM219.882 2833.7L689.677 3303.5L611.627 3381.54L597.925 3367.84L597.218 3368.55L610.92 3382.25L533.548 3459.62L455.854 3381.93L491.859 3345.92L491.152 3345.22L455.146 3381.22L377.365 3303.44L402.057 3278.75L401.35 3278.04L376.658 3302.73L298.876 3224.95L330.639 3193.19L329.932 3192.48L298.169 3224.24L220.387 3146.46L250.029 3116.82L249.322 3116.11L219.68 3145.76L141.898 3067.97L163.055 3046.82L162.348 3046.11L141.191 3067.27L63.7539 2989.83L219.882 2833.7ZM634.714 3360.05L634.627 3359.96L690.384 3304.2L768.094 3381.91L690.044 3459.96L612.421 3382.34L634.714 3360.05ZM611.714 3383.05L689.337 3460.67L611.965 3538.04L534.342 3460.42L611.714 3383.05ZM63.0468 2990.54L140.484 3067.97L62.7747 3145.68L-14.6625 3068.25L63.0468 2990.54ZM141.191 3068.68L218.973 3146.46L141.264 3224.17L63.4818 3146.39L141.191 3068.68ZM219.68 3147.17L297.462 3224.95L219.752 3302.66L141.971 3224.88L219.68 3147.17ZM298.169 3225.66L375.95 3303.44L298.241 3381.15L220.46 3303.37L298.169 3225.66ZM376.658 3304.15L454.439 3381.93L376.73 3459.64L298.948 3381.86L376.658 3304.15ZM455.146 3382.64L532.841 3460.33L455.132 3538.04L377.437 3460.35L455.146 3382.64ZM533.635 3461.12L611.258 3538.75L533.549 3616.46L455.926 3538.83L533.635 3461.12ZM-15.3696 3068.95L62.0676 3146.39L29.4116 3179.05L30.1187 3179.75L62.7747 3147.1L140.556 3224.88L107.9 3257.53L108.608 3258.24L141.264 3225.59L219.045 3303.37L135.124 3387.29L57.5432 3309.71L108.575 3258.68L107.868 3257.97L56.8361 3309L-20.8738 3231.29L30.158 3180.26L29.4509 3179.55L-21.5809 3230.58L-99.2909 3152.87L-15.3696 3068.95ZM219.752 3304.07L297.534 3381.86L213.613 3465.78L135.831 3388L219.752 3304.07ZM-99.998 3153.58L-22.288 3231.29L-100.07 3309.07L-177.78 3231.36L-99.998 3153.58ZM-21.5809 3232L56.129 3309.71L-21.6527 3387.49L-99.3627 3309.78L-21.5809 3232ZM-178.487 3232.07L-100.777 3309.78L-178.171 3387.17L-255.88 3309.46L-178.487 3232.07ZM-100.07 3310.49L-22.3599 3388.2L-99.7535 3465.59L-177.463 3387.88L-100.07 3310.49ZM-21.6527 3388.9L212.891 3623.45L135.497 3700.84L-99.0464 3466.3L-21.6527 3388.9ZM-99.7535 3467L134.79 3701.55L57.0799 3779.26L-177.463 3544.71L-99.7535 3467ZM-178.171 3388.59L-100.461 3466.3L-178.171 3544.01L-255.88 3466.3L-178.171 3388.59ZM-256.588 3310.17L-178.878 3387.88L-256.588 3465.59L-334.298 3387.88L-256.588 3310.17ZM-335.005 3388.59L-257.295 3466.3L-335.005 3544.01L-412.715 3466.3L-335.005 3388.59ZM-256.588 3467L-178.878 3544.71L-256.588 3622.42L-334.298 3544.71L-256.588 3467ZM-178.171 3545.42L56.3728 3779.96L-21.3372 3857.67L-255.88 3623.13L-178.171 3545.42Z" fill="white" fill-opacity="0.03"/>
<path d="M1075.99 2556.25H1185.89V2523H1186.89V2556.25H1296.78V2523H1297.78V2556.25H1407.68V2523H1408.68V2556.25H1518.58V2523H1519.58V2556.25H1629.48V2523H1630.48V2556.25H1740.38V2523H1741.38V2556.25H1959.06V2557.25H1741.38V2667.15H1959.06V2668.15H1741.38V2778.05H1959.06V2779.05H1741.38V2888.5H1824V2889.5H1741.38V2999.84H1851.5V2972H1852.5V2999.84H1959.06V3000.84H1852.5V3073H1852.28V3119.18H1959.06V3120.18H1852.28V3230.08H1959.06V3231.08H1852.28V3340.5H1959V3341.5H1852.28V3451.88H1959.06V3452.88H1852.28V3562.78H1959.06V3563.78H1852.28V3597.03H1851.28V3563.78H1741.38V3597.03H1740.38V3563.78H1075.99V3597.03H1074.99V3563.78H967V3562.78H1074.99V3452.88H967V3451.88H1074.99V3231.08H967V3230.08H1074.99V3120.18H967V3119.18H1074.99V3000.84H967V2999.84H1074.99V2889.5H967V2888.5H1074.99V2779.05H967V2778.05H1074.99V2668.15H967V2667.15H1074.99V2557.25H967V2556.25H1074.99V2523H1075.99V2556.25ZM1075.99 3562.78H1740.38V3452.88H1075.99V3562.78ZM1741.38 3562.78H1851.28V3452.88H1741.38V3562.78ZM1075.99 3451.88H1740.38V3341.5H1721V3340.5H1740.38V3231.08H1630.5V3282H1629.5V3231.08H1519.5V3266H1518.5V3231.08H1408.5V3276H1407.5V3231.08H1297.5V3273H1296.5V3231.08H1186.5V3261H1185.5V3231.08H1075.99V3451.88ZM1741.5 3373H1741.38V3451.88H1851.28V3341.5H1741.5V3373ZM1741.5 3340.5H1851.28V3231.08H1741.5V3340.5ZM1075.99 3230.08H1185.5V3120.18H1075.99V3230.08ZM1186.5 3230.08H1296.5V3120.18H1186.5V3230.08ZM1297.5 3230.08H1407.5V3120.18H1297.5V3230.08ZM1408.5 3230.08H1518.5V3120.18H1408.5V3230.08ZM1519.5 3230.08H1629.5V3120.18H1519.5V3230.08ZM1630.5 3230.08H1740.38V3120.18H1630.5V3230.08ZM1741.5 3230.08H1851.28V3120.18H1741.5V3230.08ZM1075.99 3119.18H1185.5V3073H1186.5V3119.18H1296.5V3073H1297.5V3119.18H1407.5V3073H1408.5V3119.18H1518.5V3073H1519.5V3119.18H1629.5V3074H1630.5V3119.18H1740.38V3085.93H1740.5V3073H1741.5V3119.18H1851.28V3072.67H1851.5V3000.84H1741.38V3072.67H1740.38V3000.84H1630.48V3071.46H1629.48V3000.84H1519.58V3072.67H1518.58V3000.84H1408.68V3072.67H1407.68V3000.84H1297.78V3072.67H1296.78V3000.84H1186.89V3072.67H1185.89V3000.84H1075.99V3119.18ZM1075.99 2999.84H1185.89V2889.5H1075.99V2999.84ZM1186.89 2999.84H1296.78V2889.5H1186.89V2999.84ZM1297.78 2999.84H1407.68V2889.5H1297.78V2999.84ZM1408.68 2999.84H1518.58V2889.5H1408.68V2999.84ZM1519.58 2999.84H1629.48V2889.5H1519.58V2999.84ZM1630.48 2999.84H1740.38V2889.5H1630.48V2999.84ZM1075.99 2888.5H1185.89V2779.05H1075.99V2888.5ZM1186.89 2888.5H1296.78V2779.05H1186.89V2888.5ZM1297.78 2888.5H1407.68V2779.05H1297.78V2888.5ZM1408.68 2888.5H1518.58V2779.05H1408.68V2888.5ZM1519.58 2888.5H1629.48V2779.05H1519.58V2888.5ZM1630.48 2888.5H1740.38V2779.05H1630.48V2888.5ZM1630.48 2778.05H1740.38V2668.15H1630.48V2778.05ZM1519.58 2778.05H1629.48V2668.15H1519.58V2778.05ZM1408.68 2778.05H1518.58V2668.15H1408.68V2778.05ZM1297.78 2778.05H1407.68V2668.15H1297.78V2778.05ZM1186.89 2778.05H1296.78V2668.15H1186.89V2778.05ZM1075.99 2778.05H1185.89V2668.15H1075.99V2778.05ZM1075.99 2667.15H1185.89V2557.25H1075.99V2667.15ZM1186.89 2667.15H1296.78V2557.25H1186.89V2667.15ZM1297.78 2667.15H1407.68V2557.25H1297.78V2667.15ZM1408.68 2667.15H1518.58V2557.25H1408.68V2667.15ZM1519.58 2667.15H1629.48V2557.25H1519.58V2667.15ZM1630.48 2667.15H1740.38V2557.25H1630.48V2667.15Z" fill="url(#paint4_radial_1_112)"/>
</g>
<defs>
<filter id="filter0_f_1_112" x="739" y="-339" width="1039" height="1039" filterUnits="userSpaceOnUse" color-interpolation-filters="sRGB">
<feFlood flood-opacity="0" result="BackgroundImageFix"/>
<feBlend mode="normal" in="SourceGraphic" in2="BackgroundImageFix" result="shape"/>
<feGaussianBlur stdDeviation="100" result="effect1_foregroundBlur_1_112"/>
</filter>
<filter id="filter1_f_1_112" x="703" y="359" width="787" height="787" filterUnits="userSpaceOnUse" color-interpolation-filters="sRGB">
<feFlood flood-opacity="0" result="BackgroundImageFix"/>
<feBlend mode="normal" in="SourceGraphic" in2="BackgroundImageFix" result="shape"/>
<feGaussianBlur stdDeviation="100" result="effect1_foregroundBlur_1_112"/>
</filter>
<filter id="filter2_f_1_112" x="-187" y="284" width="1039" height="1039" filterUnits="userSpaceOnUse" color-interpolation-filters="sRGB">
<feFlood flood-opacity="0" result="BackgroundImageFix"/>
<feBlend mode="normal" in="SourceGraphic" in2="BackgroundImageFix" result="shape"/>
<feGaussianBlur stdDeviation="100" result="effect1_foregroundBlur_1_112"/>
</filter>
<filter id="filter3_f_1_112" x="710" y="2472" width="814" height="814" filterUnits="userSpaceOnUse" color-interpolation-filters="sRGB">
<feFlood flood-opacity="0" result="BackgroundImageFix"/>
<feBlend mode="normal" in="SourceGraphic" in2="BackgroundImageFix" result="shape"/>
<feGaussianBlur stdDeviation="100" result="effect1_foregroundBlur_1_112"/>
</filter>
<filter id="filter4_f_1_112" x="-291" y="1955" width="967" height="967" filterUnits="userSpaceOnUse" color-interpolation-filters="sRGB">
<feFlood flood-opacity="0" result="BackgroundImageFix"/>
<feBlend mode="normal" in="SourceGraphic" in2="BackgroundImageFix" result="shape"/>
<feGaussianBlur stdDeviation="100" result="effect1_foregroundBlur_1_112"/>
</filter>
<filter id="filter5_f_1_112" x="611" y="1377" width="1039" height="1039" filterUnits="userSpaceOnUse" color-interpolation-filters="sRGB">
<feFlood flood-opacity="0" result="BackgroundImageFix"/>
<feBlend mode="normal" in="SourceGraphic" in2="BackgroundImageFix" result="shape"/>
<feGaussianBlur stdDeviation="100" result="effect1_foregroundBlur_1_112"/>
</filter>
<radialGradient id="paint0_radial_1_112" cx="0" cy="0" r="1" gradientUnits="userSpaceOnUse" gradientTransform="translate(1103.03 1706.01) rotate(90) scale(537.014 496.029)">
<stop stop-color="white" stop-opacity="0.24"/>
<stop offset="1" stop-color="white" stop-opacity="0"/>
</radialGradient>
<radialGradient id="paint1_radial_1_112" cx="0" cy="0" r="1" gradientUnits="userSpaceOnUse" gradientTransform="translate(879.029 597.014) rotate(90) scale(537.014 496.029)">
<stop stop-color="white" stop-opacity="0.24"/>
<stop offset="1" stop-color="white" stop-opacity="0"/>
</radialGradient>
<radialGradient id="paint2_radial_1_112" cx="0" cy="0" r="1" gradientUnits="userSpaceOnUse" gradientTransform="translate(3.02881 1558.01) rotate(90) scale(537.014 496.029)">
<stop stop-color="white" stop-opacity="0.24"/>
<stop offset="1" stop-color="white" stop-opacity="0"/>
</radialGradient>
<radialGradient id="paint3_radial_1_112" cx="0" cy="0" r="1" gradientUnits="userSpaceOnUse" gradientTransform="translate(-251.971 3465.01) rotate(90) scale(537.014 496.029)">
<stop stop-color="white" stop-opacity="0.24"/>
<stop offset="1" stop-color="white" stop-opacity="0"/>
</radialGradient>
<radialGradient id="paint4_radial_1_112" cx="0" cy="0" r="1" gradientUnits="userSpaceOnUse" gradientTransform="translate(1463.03 3060.01) rotate(90) scale(537.014 496.029)">
<stop stop-color="white" stop-opacity="0.24"/>
<stop offset="1" stop-color="white" stop-opacity="0"/>
</radialGradient>
</defs>
</svg>
